<!-- Placeholder SVG for GSA MAS Checklist Project -->
<svg width="400" height="250" viewBox="0 0 400 250" xmlns="http://www.w3.org/2000/svg">
  <defs>
    <linearGradient id="bg" x1="0%" y1="0%" x2="100%" y2="100%">
      <stop offset="0%" style="stop-color:#4F46E5;stop-opacity:1" />
      <stop offset="100%" style="stop-color:#7C3AED;stop-opacity:1" />
    </linearGradient>
  </defs>
  
  <!-- Background -->
  <rect width="400" height="250" fill="url(#bg)"/>
  
  <!-- Checklist Icon -->
  <g transform="translate(50, 50)">
    <!-- Clipboard -->
    <rect x="20" y="0" width="120" height="150" rx="8" fill="#ffffff" opacity="0.9"/>
    <rect x="30" y="10" width="100" height="130" fill="#f8fafc"/>
    
    <!-- Checklist Items -->
    <g fill="#10b981">
      <!-- Check 1 -->
      <circle cx="45" cy="35" r="6" fill="#10b981"/>
      <path d="M42 35 L44 37 L48 33" stroke="#ffffff" stroke-width="2" fill="none"/>
      <rect x="55" y="32" width="60" height="6" fill="#e5e7eb"/>
      
      <!-- Check 2 -->
      <circle cx="45" cy="55" r="6" fill="#10b981"/>
      <path d="M42 55 L44 57 L48 53" stroke="#ffffff" stroke-width="2" fill="none"/>
      <rect x="55" y="52" width="60" height="6" fill="#e5e7eb"/>
      
      <!-- Check 3 -->
      <circle cx="45" cy="75" r="6" fill="#10b981"/>
      <path d="M42 75 L44 77 L48 73" stroke="#ffffff" stroke-width="2" fill="none"/>
      <rect x="55" y="72" width="60" height="6" fill="#e5e7eb"/>
      
      <!-- Pending item -->
      <circle cx="45" cy="95" r="6" fill="#d1d5db"/>
      <rect x="55" y="92" width="60" height="6" fill="#e5e7eb"/>
    </g>
  </g>
  
  <!-- GSA Shield -->
  <g transform="translate(200, 60)">
    <path d="M50 0 L75 25 L50 50 L25 25 Z" fill="#ffffff" opacity="0.8"/>
    <text x="50" y="30" font-family="Arial, sans-serif" font-size="12" font-weight="bold" text-anchor="middle" fill="#4F46E5">GSA</text>
  </g>
  
  <!-- Browser window frame -->
  <g transform="translate(280, 40)">
    <rect x="0" y="0" width="100" height="70" rx="6" fill="#ffffff" opacity="0.9"/>
    <rect x="0" y="0" width="100" height="15" fill="#f3f4f6"/>
    <circle cx="10" cy="7.5" r="2" fill="#ef4444"/>
    <circle cx="20" cy="7.5" r="2" fill="#f59e0b"/>
    <circle cx="30" cy="7.5" r="2" fill="#10b981"/>
    
    <!-- Content lines -->
    <rect x="10" y="25" width="80" height="3" fill="#e5e7eb"/>
    <rect x="10" y="35" width="60" height="3" fill="#e5e7eb"/>
    <rect x="10" y="45" width="70" height="3" fill="#e5e7eb"/>
  </g>
  
  <!-- Title -->
  <text x="200" y="200" font-family="Arial, sans-serif" font-size="18" font-weight="bold" text-anchor="middle" fill="#ffffff">GSA MAS Checklist</text>
  <text x="200" y="220" font-family="Arial, sans-serif" font-size="12" text-anchor="middle" fill="#ffffff" opacity="0.8">Interactive Federal Contracting Tool</text>
</svg>
